<?xml version="1.0" encoding="iso-8859-1"?>
<!-- Generator: Adobe Illustrator 16.0.0, SVG Export Plug-In . SVG Version: 6.00 Build 0)  -->
<!DOCTYPE svg PUBLIC "-//W3C//DTD SVG 1.1//EN" "http://www.w3.org/Graphics/SVG/1.1/DTD/svg11.dtd">
<svg version="1.1" id="Capa_1" 
	xmlns="http://www.w3.org/2000/svg" 
	xmlns:xlink="http://www.w3.org/1999/xlink" x="0px" y="0px" width="30px" height="30px" viewBox="0 0 30 30" style="enable-background:new 0 0 30 30;" xml:space="preserve">
	<g>
		<path fill="#445566" d="M27,0H3C1.35,0,0,1.351,0,3v24c0,1.648,1.35,3,3,3h24c1.65,0,3-1.352,3-3V3C30,1.351,28.65,0,27,0z
		M7.75,4.547c-0.703,0-1.273-0.569-1.273-1.273S7.047,2,7.75,2
		s1.273,0.569,1.273,1.273S8.453,4.547,7.75,4.547z 
		M13.727,3.273C13.727,2.569,14.297,2,15,2s1.273,0.569,1.273,1.273
		S15.703,4.546,15,4.546S13.727,3.978,13.727,3.273z  
		M20.977,3.273C20.977,2.569,21.547,2,22.25,2s1.273,0.569,1.273,1.273s-0.57,1.273-1.273,1.273S20.977,3.978,20.977,3.273z"/>
	</g>

</svg>
